<?xml version="1.0" encoding="utf-8"?>
<svg version="1.1" id="Layer_1" xmlns="http://www.w3.org/2000/svg" xmlns:xlink="http://www.w3.org/1999/xlink" x="0px" y="0px"
	 viewBox="0 0 100 100" style="enable-background:new 0 0 100 100;" xml:space="preserve">
<style type="text/css">
	.logo_left{
		fill:none;
		stroke:#f4efea;
		stroke-width:5;
    <!-- filter:url(#multiply); -->
		stroke-linecap:round;
		stroke-linejoin:round
		stroke-miterlimit:10;
		stroke-dashoffset: 300;
		animation: draw 5s cubic-bezier(0,.4,1,.5) infinite;
    }

    @keyframes draw {
      0% {
        stroke-dasharray: 0 300;
        fill-opacity: 0;
      }

      90% {
        stroke-dasharray: 300 0;
        fill-opacity: 0;
      }

      100% {
        stroke-dasharray: 300 0;
        fill-opacity: 1;
        
      }
    }
	
</style>
<!-- <path class="logo_left" d="M73.1,10.3c-5.3-2.9-11.2-4.6-17.7-4.9C32.1,4.6,13,23.3,13,46.4c0,10,3.6,19.2,9.6,26.3c2,2.4,1.9,6-0.4,8.2
	c-2.1,1.9-4.4,3.3-6.1,4.2c-1.4,0.7-1.5,2.7-0.2,3.6c18,11.3,74.1,9.9,78.8-35.9c1-10.1-1.4-19.8-6.3-27.9"/> -->
  <defs>
    <filter id="multiply">
      <feFlood result="floodStroke" x="0" y="0" width="100%" height="100%"
          flood-color="#c42c48" flood-opacity="1"/>
      <feBlend in="SourceGraphic" in2="floodFill" mode="multiply"/>
    </filter>
  </defs>
  <path class="logo_left" d="M88.3,25c5,8,7.4,17.8,6.3,27.9C89.9,98.6,33.8,100,15.8,88.7c-1.3-0.9-1.3-2.9,0.2-3.6c1.8-0.9,4-2.2,6.1-4.2
	c2.3-2.2,2.5-5.8,0.4-8.2c-6-7.1-9.6-16.3-9.6-26.3c0-23.1,19.1-41.8,42.4-41c6.5,0.2,12.4,2,17.7,4.9"/>
</svg>